<svg xmlns="http://www.w3.org/2000/svg" width="24" height="24" viewBox="0 0 24 24">
    <path fill="#CCC" fill-rule="evenodd" d="M12 10.5c-.827 0-1.5.673-1.5 1.5s.673 1.5 1.5 1.5 1.5-.673 1.5-1.5-.673-1.5-1.5-1.5m0 5c-1.93 0-3.5-1.57-3.5-3.5s1.57-3.5 3.5-3.5 3.5 1.57 3.5 3.5-1.57 3.5-3.5 3.5m9.868-3.998c-.639-1.112-4.162-6.686-10.139-6.499-5.527.141-8.743 5.011-9.597 6.499-.176.309-.176.687 0 .996.63 1.097 4.03 6.502 9.893 6.502l.246-.003c5.527-.141 8.743-5.011 9.597-6.499.176-.309.176-.687 0-.996"/>
</svg>
